# xmcd
#
# Track frame offsets: 
#        150
#        5193
#        19777
#        35686
#        54277
#        68345
#        89562
#        102768
#        120651
#        141547
#        154829
#        179692
#        207800
#
# Disc length: 2871 seconds
#
# Revision: 0
# Processed by: cddbd v1.5.2PL0 Copyright (c) Steve Scherf et al.
# Submitted via: ExactAudioCopy v0.99pb5
#
DISCID=b30b350d
DTITLE=Trond Granlund - Sanger jeg lærte av faren min
DYEAR=2010
DGENRE=Roots
TTITLE0=Barndomshjemmet
TTITLE1=Tigerstaden
TTITLE2=Den da'n ødelagt
TTITLE3=Klonkerud
TTITLE4=De nære ting
TTITLE5=Spill sigøyner spill
TTITLE6=Det lyder litt utrolig
TTITLE7=Tåke i London
TTITLE8=Sven Svane
TTITLE9=Den få'kke du
TTITLE10=Bakgårdsmusikanten
TTITLE11=Timmerkojan
TTITLE12=Til Pippa og Paps
EXTD=
EXTT0=
EXTT1=
EXTT2=
EXTT3=
EXTT4=
EXTT5=
EXTT6=
EXTT7=
EXTT8=
EXTT9=
EXTT10=
EXTT11=
EXTT12=
PLAYORDER=
